packet|stream_index=0|pts=0|pts_time=0.000000
packet|stream_index=0|pts=1|pts_time=0.040000
packet|stream_index=0|pts=2|pts_time=0.080000
packet|stream_index=0|pts=3|pts_time=0.120000
packet|stream_index=0|pts=4|pts_time=0.160000
packet|stream_index=0|pts=5|pts_time=0.200000
packet|stream_index=0|pts=6|pts_time=0.240000
packet|stream_index=0|pts=7|pts_time=0.280000
packet|stream_index=0|pts=8|pts_time=0.320000
packet|stream_index=0|pts=9|pts_time=0.360000
packet|stream_index=0|pts=10|pts_time=0.400000
packet|stream_index=0|pts=11|pts_time=0.440000
packet|stream_index=0|pts=12|pts_time=0.480000
packet|stream_index=0|pts=13|pts_time=0.520000
packet|stream_index=0|pts=14|pts_time=0.560000
packet|stream_index=0|pts=15|pts_time=0.600000
packet|stream_index=0|pts=16|pts_time=0.640000
packet|stream_index=0|pts=17|pts_time=0.680000
packet|stream_index=0|pts=18|pts_time=0.720000
packet|stream_index=0|pts=19|pts_time=0.760000
packet|stream_index=0|pts=20|pts_time=0.800000
packet|stream_index=0|pts=21|pts_time=0.840000
packet|stream_index=0|pts=22|pts_time=0.880000
packet|stream_index=0|pts=23|pts_time=0.920000
packet|stream_index=0|pts=24|pts_time=0.960000
